<svg width="1120" height="1120" viewBox="0 0 1120 1120" fill="none" xmlns="http://www.w3.org/2000/svg">
<rect width="1120" height="1120" fill="white"/>
<path d="M877.121 384.413L875.79 433.958L740.009 355.565C736.444 353.506 732.05 353.511 728.489 355.577L580.536 441.404L431.983 357.504L432.219 196.737L556.871 125.233C561.901 122.348 563.64 115.931 560.755 110.901C557.869 105.87 551.452 104.132 546.422 107.017L417.005 181.255C413.437 183.302 411.234 187.099 411.228 191.213L410.975 363.027C410.969 367.181 413.203 371.015 416.819 373.057L574.944 462.363C578.495 464.369 582.842 464.344 586.37 462.297L734.271 376.5L879.108 460.122C886.656 464.48 896.12 459.185 896.354 450.472L898.263 379.397C898.375 375.228 896.221 371.324 892.633 369.197L746.08 282.291C742.551 280.198 738.175 280.144 734.595 282.148L598.123 358.577C588.667 353.599 576.887 356.945 571.497 366.281C565.974 375.846 569.252 388.078 578.817 393.601C588.383 399.124 600.615 395.846 606.138 386.281C607.893 383.241 608.759 379.933 608.818 376.656L740.078 303.146L877.121 384.413Z" fill="#FF8A00"/>
<path d="M377.7 221.254L334 246.661V409.649L466.773 488.641C469.652 487.035 472.969 486.12 476.5 486.12C487.546 486.12 496.5 495.074 496.5 506.12C496.5 517.166 487.546 526.12 476.5 526.12C465.74 526.12 456.965 517.623 456.518 506.974L456.481 506.953L456.443 506.93L456.381 506.894L318.62 424.935C315.135 422.861 313 419.106 313 415.051V241.195C313 237.099 315.179 233.312 318.72 231.254L381.239 194.905C388.857 190.476 398.421 195.909 398.518 204.72L400.432 377.937L550.383 462.179C554.007 464.215 556.25 468.049 556.25 472.205V654.791C556.25 658.909 554.048 662.713 550.478 664.763L405.231 748.187C401.666 750.235 397.279 750.224 393.725 748.158L264.725 673.199C259.711 670.285 258.008 663.859 260.921 658.845C263.835 653.831 270.261 652.128 275.275 655.042L399.531 727.244L535.25 649.292V477.765L385.361 393.557C381.776 391.544 379.54 387.769 379.494 383.658L377.7 221.254Z" fill="#FF8A00"/>
<path d="M265.75 284.058L275.363 293.68L299.191 292.769L254.015 247.553L213.251 296.055L236.87 295.152L244.75 285.776V451.807C244.75 455.826 246.848 459.554 250.285 461.639L400.5 552.781V579.503L388.264 587.033L262.299 509.133C254.637 504.396 244.75 509.906 244.75 518.914V598.8C244.75 602.863 246.894 606.625 250.391 608.695L382.362 686.836C386.148 689.078 390.881 688.963 394.553 686.541L470.752 636.282C472.573 636.827 474.502 637.12 476.5 637.12C487.546 637.12 496.5 628.166 496.5 617.12C496.5 606.074 487.546 597.12 476.5 597.12C465.454 597.12 456.5 606.074 456.5 617.12C456.5 618.221 456.589 619.302 456.76 620.354L387.95 665.74L265.75 593.385V535.959L382.203 607.976C385.902 610.263 390.574 610.269 394.278 607.989L416.027 594.605C419.428 592.512 421.5 588.805 421.5 584.811V547.433C421.5 543.414 419.402 539.686 415.965 537.601L265.75 446.459V284.058Z" fill="#FF8A00"/>
<path d="M445.574 762.383L486.989 791.01L627.618 709.818L629.611 557.59C626.597 555.891 623.984 553.387 622.129 550.173C616.606 540.607 619.883 528.376 629.449 522.853C639.015 517.33 651.247 520.607 656.77 530.173C662.06 539.337 659.275 550.946 650.624 556.761L648.546 715.495C648.493 719.549 646.308 723.276 642.797 725.304L492.283 812.203C488.434 814.425 483.649 814.23 479.994 811.703L421.284 771.121C414.34 766.321 414.762 755.923 422.073 751.702L566.938 668.064L564.919 496.16C564.87 492.004 567.068 488.144 570.668 486.066L728.801 394.768C732.314 392.74 736.636 392.712 740.175 394.696L887.162 477.107C890.8 479.148 893.049 482.999 893.037 487.171L892.621 636.358C892.605 642.157 887.89 646.845 882.091 646.829C876.292 646.813 871.605 642.098 871.621 636.299L872.022 492.695L734.62 415.657L585.983 501.473L588.002 673.377C588.051 677.533 585.852 681.393 582.253 683.471L445.574 762.383Z" fill="#FF8A00"/>
<path d="M553.609 820.482L549.89 833.503L693.621 750.52L697.444 574.859C697.532 570.84 699.711 567.159 703.192 565.15L735.562 546.461C739.021 544.464 743.268 544.404 746.781 546.303L769.246 558.446C773.072 560.514 775.404 564.564 775.272 568.911L771.13 705.77L820.862 677.057L822.424 535.052L746.88 497.235C746.736 497.323 746.591 497.409 746.444 497.494C736.878 503.017 724.647 499.739 719.124 490.173C713.601 480.607 716.878 468.376 726.444 462.853C736.01 457.33 748.242 460.607 753.765 470.173C755.289 472.814 756.143 475.657 756.379 478.506L837.136 518.932C841.07 520.902 843.536 524.943 843.488 529.342L841.801 682.703C841.757 686.767 839.571 690.505 836.052 692.536L766.869 732.479C759.068 736.983 749.352 731.176 749.624 722.172L754.104 574.133L741.465 567.301L718.323 580.662L714.5 756.324C714.412 760.342 712.233 764.023 708.752 766.033L561.48 851.06L573.607 853.41L585.877 873.612L523.674 861.562L541.232 800.101L553.609 820.482Z" fill="#FF8A00"/>
<path d="M879.506 304.755L864.783 307.775L852.433 328.172L915.047 315.33L896.979 254.604L884.736 274.822L887.863 285.331L748.265 204.734C744.784 202.725 740.507 202.678 736.983 204.611L582.944 289.131L559.803 275.77L559.399 261.408L689.845 191.269C697.779 187.003 697.95 175.685 690.149 171.181L620.966 131.238C617.447 129.206 613.117 129.182 609.575 131.175L475.918 206.395C472.084 208.553 469.817 212.709 470.078 217.101L475.442 307.181C472.657 308.868 470.245 311.261 468.502 314.281C462.979 323.846 466.256 336.078 475.822 341.601C485.388 347.124 497.62 343.846 503.143 334.281C508.535 324.941 505.538 313.06 496.49 307.363L491.394 221.783L615.155 152.132L664.887 180.845L544.293 245.687C540.462 247.747 538.121 251.791 538.243 256.139L538.96 281.665C539.072 285.657 541.247 289.305 544.705 291.302L577.076 309.991C580.557 312.001 584.834 312.048 588.358 310.114L742.397 225.595L879.506 304.755Z" fill="#FF8A00"/>
<path d="M450.36 1050.48H415.8C407.907 1050.48 401.773 1048.29 397.4 1043.92C393.133 1039.55 391 1033.47 391 1025.68V993.68C391 985.787 393.133 979.707 397.4 975.44C401.773 971.067 407.907 968.88 415.8 968.88H428.92C436.813 968.88 442.947 971.067 447.32 975.44C451.693 979.707 453.88 985.787 453.88 993.68V1014C453.88 1015.92 452.92 1016.88 451 1016.88H408.12C406.947 1016.88 406.36 1017.41 406.36 1018.48V1025.36C406.36 1033.15 410.253 1037.04 418.04 1037.04H450.36C452.28 1037.04 453.24 1038 453.24 1039.92V1047.92C453.24 1049.63 452.28 1050.48 450.36 1050.48ZM408.12 1006H436.76C437.827 1006 438.36 1005.47 438.36 1004.4V994.16C438.36 990.107 437.453 987.173 435.64 985.36C433.827 983.44 430.893 982.48 426.84 982.48H418.04C413.987 982.48 411.053 983.44 409.24 985.36C407.427 987.173 406.52 990.107 406.52 994.16V1004.4C406.52 1005.47 407.053 1006 408.12 1006Z" fill="#222222"/>
<path d="M485.106 1050.48H475.026C473.213 1050.48 472.306 1049.57 472.306 1047.76V940.72C472.306 938.907 473.213 938 475.026 938H485.106C486.92 938 487.826 938.907 487.826 940.72V1047.76C487.826 1049.57 486.92 1050.48 485.106 1050.48Z" fill="#222222"/>
<path d="M526.13 1036.88H545.97C553.65 1036.88 557.49 1032.93 557.49 1025.04V993.68C557.49 985.787 553.65 981.84 545.97 981.84H537.49C528.743 981.84 524.37 986.32 524.37 995.28V1035.12C524.37 1036.29 524.957 1036.88 526.13 1036.88ZM508.85 1047.76V940.72C508.85 938.907 509.757 938 511.57 938H521.65C523.463 938 524.37 938.907 524.37 940.72V976.88H525.01C527.677 971.12 533.063 968.24 541.17 968.24H548.21C556.103 968.24 562.237 970.427 566.61 974.8C570.983 979.067 573.17 985.093 573.17 992.88V1025.68C573.17 1033.47 570.983 1039.55 566.61 1043.92C562.237 1048.29 556.103 1050.48 548.21 1050.48H511.57C509.757 1050.48 508.85 1049.57 508.85 1047.76Z" fill="#222222"/>
<path d="M621.903 1050.48H614.702C607.022 1050.48 601.103 1048.35 596.943 1044.08C592.889 1039.71 590.863 1033.57 590.863 1025.68V971.6C590.863 969.787 591.769 968.88 593.583 968.88H603.663C605.476 968.88 606.383 969.787 606.383 971.6V1025.04C606.383 1032.93 610.223 1036.88 617.903 1036.88H625.583C634.329 1036.88 638.702 1032.35 638.702 1023.28V971.6C638.702 969.787 639.609 968.88 641.423 968.88H651.503C653.423 968.88 654.382 969.787 654.382 971.6V1047.76C654.382 1049.57 653.423 1050.48 651.503 1050.48H641.423C639.609 1050.48 638.702 1049.57 638.702 1047.76V1042H638.062C635.503 1047.65 630.116 1050.48 621.903 1050.48Z" fill="#222222"/>
<path d="M703.439 1050.48H673.999C672.185 1050.48 671.279 1049.57 671.279 1047.76V1039.92C671.279 1038.21 672.185 1037.36 673.999 1037.36H700.879C707.812 1037.36 711.279 1034.96 711.279 1030.16V1028.24C711.279 1023.97 708.772 1020.72 703.759 1018.48L686.319 1010.16C680.879 1007.6 676.932 1004.77 674.479 1001.68C672.025 998.587 670.799 994.533 670.799 989.52C670.799 975.76 678.425 968.88 693.679 968.88H720.239C721.945 968.88 722.799 969.787 722.799 971.6V979.44C722.799 981.253 721.945 982.16 720.239 982.16H696.879C693.679 982.16 691.225 982.747 689.519 983.92C687.812 984.987 686.959 986.427 686.959 988.24V990C686.959 993.413 689.679 996.4 695.119 998.96L712.719 1007.92C718.265 1010.37 722.052 1013.31 724.079 1016.72C726.212 1020.03 727.279 1024.35 727.279 1029.68C727.279 1043.55 719.332 1050.48 703.439 1050.48Z" fill="#222222"/>
</svg>
