<svg width="846" height="257" viewBox="0 0 846 257" fill="none" xmlns="http://www.w3.org/2000/svg">
<path fill-rule="evenodd" clip-rule="evenodd" d="M281.269 225.81C290.243 225.81 297.993 219.526 299.847 210.745L307.29 175.494H102.47C101.421 175.494 100.571 176.344 100.571 177.392V198.951C100.571 200.528 98.7587 201.418 97.5113 200.454L65.7246 175.89C65.3921 175.633 64.9838 175.494 64.5635 175.494H19.6639L6 225.81H281.269ZM102.47 156.506H311.299L317.472 127.273L323.476 99.5445H288.205C287.785 99.5445 287.376 99.6838 287.044 99.9408L255.519 124.302C254.271 125.266 252.459 124.377 252.459 122.8V101.443C252.459 100.395 251.609 99.5445 250.56 99.5445H40.0402L32.4256 128.5L24.8201 156.506H65.7695C66.1818 156.506 66.5829 156.372 66.9122 156.125L97.5293 133.053C98.7806 132.11 100.571 133.003 100.571 134.569V154.608C100.571 155.657 101.421 156.506 102.47 156.506ZM45.0334 80.5572L54.2924 45.3483C56.4864 37.0054 64.0288 31.1899 72.6554 31.1899H338.278L327.588 80.5572H287.529C287.117 80.5572 286.715 80.4229 286.386 80.1748L255.501 56.9016C254.25 55.9588 252.459 56.8514 252.459 58.418V78.6584C252.459 79.7071 251.609 80.5572 250.56 80.5572H45.0334Z" fill="#FF8A00"/>
<path d="M521.744 161.224L542.458 171.96C548.986 174.9 553.442 178.416 555.828 182.506C558.338 186.468 559.594 191.645 559.594 198.036C559.594 214.653 550.241 222.962 531.536 222.962H496.887C494.753 222.962 493.686 221.876 493.686 219.703V210.308C493.686 208.262 494.753 207.239 496.887 207.239H528.523C536.683 207.239 540.763 204.364 540.763 198.612V196.31C540.763 191.198 537.812 187.299 531.912 184.615L511.387 174.645C504.984 171.578 500.34 168.19 497.452 164.483C494.565 160.776 493.121 155.919 493.121 149.911C493.121 133.422 502.097 125.177 520.049 125.177H551.308C553.317 125.177 554.321 126.263 554.321 128.436V137.831C554.321 140.004 553.317 141.091 551.308 141.091H523.815C520.049 141.091 517.162 141.794 515.153 143.2C513.144 144.479 512.141 146.204 512.141 148.377V150.486C512.141 154.576 515.341 158.155 521.744 161.224Z" fill="#FF8A00"/>
<path fill-rule="evenodd" clip-rule="evenodd" d="M340.063 128.481V219.772C340.063 221.899 341.127 222.962 343.254 222.962H381.238C389.139 222.962 395.267 220.836 399.623 216.583C403.978 212.329 406.155 206.253 406.155 198.355V189.241C406.155 184.278 404.94 180.481 402.509 177.848C400.079 175.114 396.837 173.443 392.786 172.836C400.788 170.304 404.788 164.735 404.788 156.127V149.899C404.788 142 402.611 135.924 398.255 131.671C393.9 127.418 387.721 125.292 379.718 125.292H343.254C341.127 125.292 340.063 126.355 340.063 128.481ZM378.048 206.861H361.031C359.917 206.861 359.359 206.304 359.359 205.19V182.253C359.359 181.14 359.917 180.583 361.031 180.583H377.744C381.187 180.583 383.669 181.24 385.189 182.557C386.708 183.874 387.467 186.101 387.467 189.241V198.051C387.467 201.19 386.708 203.469 385.189 204.886C383.77 206.203 381.39 206.861 378.048 206.861ZM376.529 164.937H361.031C359.917 164.937 359.359 164.38 359.359 163.266V143.064C359.359 141.95 359.917 141.393 361.031 141.393H376.681C379.922 141.393 382.251 142.102 383.669 143.519C385.189 144.836 385.948 147.063 385.948 150.203V156.127C385.948 159.266 385.189 161.545 383.669 162.962C382.15 164.279 379.77 164.937 376.529 164.937Z" fill="#FF8A00"/>
<path d="M479.74 125.292H466.977C464.85 125.292 463.787 126.355 463.787 128.481V197.291C463.787 200.532 463.077 202.861 461.659 204.279C460.342 205.596 458.064 206.253 454.823 206.253H444.339C441.198 206.253 438.92 205.596 437.501 204.279C436.185 202.861 435.526 200.532 435.526 197.291V128.481C435.526 126.355 434.463 125.292 432.336 125.292H419.421C417.294 125.292 416.23 126.355 416.23 128.481V198.203C416.23 206.203 418.408 212.329 422.764 216.583C427.119 220.836 433.298 222.962 441.3 222.962H458.013C465.913 222.962 472.041 220.836 476.397 216.583C480.854 212.228 483.082 206.102 483.082 198.203V128.329C483.082 126.304 481.968 125.292 479.74 125.292Z" fill="#FF8A00"/>
<path d="M568.629 222.962H580.329C582.253 222.962 583.62 221.899 584.431 219.772L619.072 128.481C619.883 126.355 619.072 125.292 616.641 125.292H604.942C603.119 125.292 601.752 126.355 600.84 128.481C597.598 136.886 591.825 152.127 583.519 174.203C575.213 196.278 569.439 211.468 566.198 219.772C565.388 221.899 566.198 222.962 568.629 222.962Z" fill="#FF8A00"/>
<path fill-rule="evenodd" clip-rule="evenodd" d="M634.33 222.962H647.245C649.372 222.962 650.436 221.899 650.436 219.772V188.633C650.436 187.52 651.043 186.962 652.259 186.962H662.438L677.632 219.772C678.139 221.089 678.797 221.949 679.608 222.355C680.417 222.76 681.734 222.962 683.558 222.962H695.865C698.498 222.962 699.359 221.747 698.448 219.317L682.191 185.443V184.836C691.205 181.089 695.713 173.494 695.713 162.051V150.203C695.713 142.304 693.484 136.178 689.027 131.823C684.571 127.468 678.392 125.292 670.491 125.292H634.33C632.203 125.292 631.14 126.355 631.14 128.481V219.772C631.14 221.899 632.203 222.962 634.33 222.962ZM666.997 171.469H652.107C650.993 171.469 650.436 170.911 650.436 169.798V143.671C650.436 142.558 650.993 142 652.107 142H666.997C670.238 142 672.618 142.71 674.137 144.127C675.657 145.544 676.417 147.823 676.417 150.962V162.81C676.417 165.848 675.657 168.077 674.137 169.494C672.618 170.811 670.238 171.469 666.997 171.469Z" fill="#FF8A00"/>
<path d="M733.223 222.962H745.985C748.113 222.962 749.176 221.899 749.176 219.772V143.671C749.176 142.558 749.784 142 751 142H768.32C770.447 142 771.511 140.937 771.511 138.81V128.481C771.511 126.355 770.447 125.292 768.32 125.292H710.888C708.761 125.292 707.697 126.355 707.697 128.481V138.81C707.697 140.937 708.761 142 710.888 142H728.209C729.323 142 729.88 142.558 729.88 143.671V219.772C729.88 221.899 730.995 222.962 733.223 222.962Z" fill="#FF8A00"/>
<path fill-rule="evenodd" clip-rule="evenodd" d="M834.089 153.434C834.089 166.934 823.145 177.878 809.645 177.878C796.144 177.878 785.2 166.934 785.2 153.434C785.2 139.933 796.144 128.989 809.645 128.989C823.145 128.989 834.089 139.933 834.089 153.434ZM838 153.434C838 169.094 825.305 181.789 809.645 181.789C793.984 181.789 781.289 169.094 781.289 153.434C781.289 137.773 793.984 125.078 809.645 125.078C825.305 125.078 838 137.773 838 153.434ZM800.058 139.656V168.1H804.35V157.336H810.183C810.276 157.336 810.368 157.336 810.46 157.334L816.239 168.1H821.128L814.833 156.604C815.124 156.495 815.403 156.373 815.67 156.239C817.133 155.508 818.225 154.485 818.947 153.17C819.679 151.846 820.045 150.313 820.045 148.573C820.045 146.823 819.683 145.281 818.961 143.948C818.239 142.605 817.146 141.554 815.683 140.795C814.23 140.036 812.401 139.656 810.197 139.656H800.058ZM804.35 153.642H809.795C811.183 153.642 812.313 153.443 813.183 153.045C814.063 152.647 814.707 152.068 815.114 151.309C815.521 150.549 815.725 149.637 815.725 148.573C815.725 147.498 815.517 146.568 815.1 145.781C814.693 144.994 814.049 144.392 813.17 143.975C812.299 143.549 811.156 143.336 809.739 143.336H804.35V153.642Z" fill="#FF8A00"/>
</svg>
