<svg width="846" height="257" viewBox="0 0 846 257" fill="none" xmlns="http://www.w3.org/2000/svg">
<path fill-rule="evenodd" clip-rule="evenodd" d="M299.95 231C309.403 231 317.566 224.381 319.519 215.132L327.359 178H111.615C110.51 178 109.615 178.896 109.615 180V202.709C109.615 204.37 107.706 205.307 106.392 204.292L72.91 178.418C72.5598 178.147 72.1297 178 71.687 178H24.3927L10 231L299.95 231ZM111.615 158H331.582L338.084 127.208L344.409 98.0002L307.256 98.0002C306.814 98.0002 306.383 98.147 306.033 98.4177L272.827 124.078C271.513 125.094 269.604 124.157 269.604 122.496V100C269.604 98.8956 268.709 98.0002 267.604 98.0002L45.8557 98.0002L37.835 128.5L29.8239 158H72.9573C73.3916 158 73.8141 157.859 74.1609 157.598L106.411 133.296C107.729 132.303 109.615 133.243 109.615 134.893V156C109.615 157.105 110.51 158 111.615 158ZM51.1152 78.0002L60.8681 40.9135C63.1791 32.1256 71.1238 26 80.2105 26L360 26L348.74 78.0002L306.544 78.0002C306.11 78.0002 305.687 77.8588 305.34 77.5975L272.808 53.083C271.49 52.0899 269.604 53.0301 269.604 54.6803V76.0002C269.604 77.1048 268.709 78.0002 267.604 78.0002L51.1152 78.0002Z" fill="#FF8A00"/>
<path d="M568.792 162.969L590.611 174.278C597.487 177.375 602.181 181.078 604.694 185.386C607.338 189.56 608.661 195.013 608.661 201.745C608.661 219.248 598.809 228 579.107 228H542.61C540.362 228 539.238 226.856 539.238 224.567V214.671C539.238 212.516 540.362 211.439 542.61 211.439H575.933C584.528 211.439 588.826 208.41 588.826 202.351V199.927C588.826 194.542 585.718 190.435 579.503 187.608L557.883 177.106C551.139 173.875 546.247 170.307 543.205 166.402C540.164 162.497 538.643 157.381 538.643 151.053C538.643 133.684 548.098 125 567.007 125H599.933C602.049 125 603.107 126.144 603.107 128.433V138.329C603.107 140.618 602.049 141.763 599.933 141.763H570.974C567.007 141.763 563.966 142.503 561.85 143.984C559.734 145.331 558.677 147.148 558.677 149.437V151.659C558.677 155.967 562.048 159.737 568.792 162.969Z" fill="#FF8A00"/>
<path fill-rule="evenodd" clip-rule="evenodd" d="M366 128.48V224.64C366 226.88 367.12 228 369.361 228H409.371C417.693 228 424.148 225.76 428.736 221.28C433.323 216.8 435.617 210.4 435.617 202.08V192.48C435.617 187.253 434.337 183.253 431.776 180.48C429.216 177.6 425.802 175.84 421.534 175.2C429.963 172.533 434.177 166.667 434.177 157.6V151.04C434.177 142.72 431.883 136.32 427.295 131.84C422.708 127.36 416.199 125.12 407.77 125.12H369.361C367.12 125.12 366 126.24 366 128.48ZM406.01 211.04H388.086C386.912 211.04 386.325 210.453 386.325 209.28V185.12C386.325 183.947 386.912 183.36 388.086 183.36H405.69C409.317 183.36 411.931 184.053 413.532 185.44C415.132 186.827 415.932 189.173 415.932 192.48V201.76C415.932 205.067 415.132 207.467 413.532 208.96C412.038 210.347 409.531 211.04 406.01 211.04ZM404.41 166.88H388.086C386.912 166.88 386.325 166.293 386.325 165.12V143.84C386.325 142.667 386.912 142.08 388.086 142.08H404.57C407.984 142.08 410.438 142.827 411.931 144.32C413.532 145.707 414.332 148.053 414.332 151.36V157.6C414.332 160.907 413.532 163.307 411.931 164.8C410.331 166.187 407.824 166.88 404.41 166.88Z" fill="#FF8A00"/>
<path d="M522.469 125.12H509.026C506.785 125.12 505.665 126.24 505.665 128.48V200.96C505.665 204.373 504.918 206.827 503.424 208.32C502.037 209.707 499.637 210.4 496.223 210.4H485.18C481.872 210.4 479.472 209.707 477.978 208.32C476.591 206.827 475.897 204.373 475.897 200.96V128.48C475.897 126.24 474.777 125.12 472.537 125.12H458.933C456.693 125.12 455.572 126.24 455.572 128.48V201.92C455.572 210.347 457.866 216.8 462.454 221.28C467.042 225.76 473.55 228 481.979 228H499.583C507.905 228 514.36 225.76 518.948 221.28C523.643 216.693 525.99 210.24 525.99 201.92V128.32C525.99 126.187 524.816 125.12 522.469 125.12Z" fill="#FF8A00"/>
<path d="M618.177 228H630.5C632.527 228 633.967 226.88 634.821 224.64L671.31 128.48C672.164 126.24 671.31 125.12 668.749 125.12H656.426C654.506 125.12 653.066 126.24 652.105 128.48C648.691 137.333 642.61 153.387 633.861 176.64C625.112 199.893 619.03 215.893 615.616 224.64C614.763 226.88 615.616 228 618.177 228Z" fill="#FF8A00"/>
<path fill-rule="evenodd" clip-rule="evenodd" d="M691.504 228H705.107C707.348 228 708.468 226.88 708.468 224.64V191.84C708.468 190.667 709.108 190.08 710.389 190.08H721.111L737.115 224.64C737.649 226.027 738.342 226.933 739.196 227.36C740.049 227.787 741.436 228 743.357 228H756.32C759.094 228 760.001 226.72 759.041 224.16L741.917 188.48V187.84C751.412 183.893 756.16 175.893 756.16 163.84V151.36C756.16 143.04 753.813 136.587 749.118 132C744.424 127.413 737.916 125.12 729.593 125.12H691.504C689.263 125.12 688.143 126.24 688.143 128.48V224.64C688.143 226.88 689.263 228 691.504 228ZM725.913 173.76H710.229C709.055 173.76 708.468 173.173 708.468 172V144.48C708.468 143.307 709.055 142.72 710.229 142.72H725.913C729.327 142.72 731.834 143.467 733.434 144.96C735.035 146.453 735.835 148.853 735.835 152.16V164.64C735.835 167.84 735.035 170.187 733.434 171.68C731.834 173.067 729.327 173.76 725.913 173.76Z" fill="#FF8A00"/>
<path d="M795.67 228H809.113C811.354 228 812.474 226.88 812.474 224.64V144.48C812.474 143.307 813.114 142.72 814.395 142.72H832.639C834.88 142.72 836 141.6 836 139.36V128.48C836 126.24 834.88 125.12 832.639 125.12H772.144C769.904 125.12 768.783 126.24 768.783 128.48V139.36C768.783 141.6 769.904 142.72 772.144 142.72H790.389C791.562 142.72 792.149 143.307 792.149 144.48V224.64C792.149 226.88 793.323 228 795.67 228Z" fill="#FF8A00"/>
</svg>
