<svg width="1051" height="249" viewBox="0 0 1051 249" fill="none" xmlns="http://www.w3.org/2000/svg">
<path fill-rule="evenodd" clip-rule="evenodd" d="M438.226 229C447.071 229 454.866 223.189 457.392 214.712L468.93 176H163.599C162.495 176 161.599 176.895 161.599 178V201.407C161.599 202.926 159.972 203.891 158.639 203.161L109.48 176.246C109.185 176.085 108.855 176 108.519 176H41.3143L21 229L438.226 229ZM163.599 156H474.89L484.067 125.208L492.994 96.0001L440.104 96.0001C439.768 96.0001 439.438 96.0846 439.143 96.2458L390.373 122.948C389.04 123.678 387.412 122.713 387.412 121.194V98.0001C387.412 96.8955 386.517 96.0001 385.412 96.0001L71.6078 96L60.2872 126.5L48.9801 156H110.305C110.633 156 110.957 155.919 111.247 155.764L158.657 130.452C159.99 129.741 161.599 130.707 161.599 132.217V154C161.599 155.105 162.495 156 163.599 156ZM79.0313 76L93.4919 37.0406C96.4015 29.2016 103.88 24 112.242 24L515 24L499.107 76.0001L439.106 76.0001C438.777 76.0001 438.454 75.9191 438.164 75.7644L390.354 50.2396C389.022 49.5283 387.412 50.4937 387.412 52.0039V74C387.412 75.1046 386.517 76 385.412 76L79.0313 76Z" fill="#FF8A00"/>
<path d="M598.791 228.932H545.349C533.143 228.932 523.659 225.551 516.897 218.788C510.299 212.025 507 202.624 507 190.583V141.1C507 128.894 510.299 119.493 516.897 112.895C523.659 106.132 533.143 102.751 545.349 102.751H565.637C577.843 102.751 587.327 106.132 594.09 112.895C600.852 119.493 604.234 128.894 604.234 141.1V172.522C604.234 175.491 602.749 176.975 599.78 176.975H533.473C531.659 176.975 530.752 177.8 530.752 179.449V190.088C530.752 202.129 536.772 208.149 548.813 208.149H598.791C601.759 208.149 603.244 209.634 603.244 212.603V224.973C603.244 227.612 601.759 228.932 598.791 228.932ZM533.473 160.151H577.76C579.41 160.151 580.234 159.326 580.234 157.677V141.842C580.234 135.574 578.832 131.039 576.028 128.234C573.224 125.266 568.689 123.781 562.421 123.781H548.813C542.545 123.781 538.009 125.266 535.205 128.234C532.401 131.039 530.999 135.574 530.999 141.842V157.677C530.999 159.326 531.824 160.151 533.473 160.151Z" fill="#FF8A00"/>
<path d="M652.52 228.932H636.933C634.129 228.932 632.727 227.53 632.727 224.726V59.206C632.727 56.402 634.129 55 636.933 55H652.52C655.324 55 656.726 56.402 656.726 59.206V224.726C656.726 227.53 655.324 228.932 652.52 228.932Z" fill="#FF8A00"/>
<path d="M715.956 207.902H746.636C758.512 207.902 764.45 201.799 764.45 189.593V141.1C764.45 128.894 758.512 122.791 746.636 122.791H733.523C719.998 122.791 713.235 129.719 713.235 143.574V205.18C713.235 206.995 714.142 207.902 715.956 207.902ZM689.236 224.726V59.206C689.236 56.402 690.638 55 693.442 55H709.029C711.833 55 713.235 56.402 713.235 59.206V115.122H714.225C718.348 106.215 726.678 101.761 739.213 101.761H750.1C762.305 101.761 771.789 105.143 778.552 111.905C785.315 118.503 788.696 127.822 788.696 139.863V190.583C788.696 202.624 785.315 212.025 778.552 218.788C771.789 225.551 762.305 228.932 750.1 228.932H693.442C690.638 228.932 689.236 227.53 689.236 224.726Z" fill="#FF8A00"/>
<path d="M864.053 228.932H852.919C841.043 228.932 831.889 225.633 825.456 219.035C819.189 212.273 816.055 202.789 816.055 190.583V106.957C816.055 104.153 817.457 102.751 820.261 102.751H835.848C838.652 102.751 840.054 104.153 840.054 106.957V189.593C840.054 201.799 845.992 207.902 857.868 207.902H869.743C883.269 207.902 890.031 200.892 890.031 186.872V106.957C890.031 104.153 891.433 102.751 894.237 102.751H909.824C912.793 102.751 914.278 104.153 914.278 106.957V224.726C914.278 227.53 912.793 228.932 909.824 228.932H894.237C891.433 228.932 890.031 227.53 890.031 224.726V215.819H889.042C885.083 224.561 876.753 228.932 864.053 228.932Z" fill="#FF8A00"/>
<path d="M990.135 228.932H944.611C941.807 228.932 940.405 227.53 940.405 224.726V212.603C940.405 209.964 941.807 208.644 944.611 208.644H986.177C996.898 208.644 1002.26 204.933 1002.26 197.51V194.541C1002.26 187.944 998.382 182.913 990.63 179.449L963.662 166.584C955.25 162.625 949.147 158.254 945.353 153.471C941.56 148.687 939.663 142.42 939.663 134.667C939.663 113.39 951.456 102.751 975.043 102.751H1016.11C1018.75 102.751 1020.07 104.153 1020.07 106.957V119.08C1020.07 121.884 1018.75 123.286 1016.11 123.286H979.991C975.043 123.286 971.249 124.193 968.61 126.008C965.971 127.657 964.652 129.884 964.652 132.688V135.409C964.652 140.688 968.858 145.306 977.27 149.265L1004.49 163.12C1013.06 166.914 1018.92 171.449 1022.05 176.728C1025.35 181.841 1027 188.521 1027 196.768C1027 218.211 1014.71 228.932 990.135 228.932Z" fill="#FF8A00"/>
</svg>
