<svg width="796" height="249" viewBox="0 0 796 249" fill="none" xmlns="http://www.w3.org/2000/svg">
<path fill-rule="evenodd" clip-rule="evenodd" d="M299.95 229C309.403 229 317.566 222.381 319.519 213.132L327.359 176H111.615C110.51 176 109.615 176.895 109.615 178V200.709C109.615 202.37 107.706 203.307 106.392 202.291L72.9098 176.417C72.5596 176.147 72.1295 176 71.6869 176H24.3927L10 229L299.95 229ZM111.615 156H331.582L338.084 125.208L344.409 96.0001H307.256C306.813 96.0001 306.383 96.1469 306.033 96.4175L272.827 122.078C271.512 123.094 269.604 122.157 269.604 120.496V98.0001C269.604 96.8955 268.708 96.0001 267.604 96.0001L45.8558 96L37.835 126.5L29.824 156H72.9575C73.3918 156 73.8143 155.859 74.1611 155.597L106.411 131.296C107.729 130.303 109.615 131.243 109.615 132.893V154C109.615 155.105 110.51 156 111.615 156ZM51.1153 76L60.8681 38.9135C63.1791 30.1256 71.1238 24 80.2105 24L360 24L348.74 76.0001L306.543 76.0001C306.109 76.0001 305.687 75.8587 305.34 75.5973L272.807 51.083C271.489 50.0899 269.604 51.0301 269.604 52.6803V74.0001C269.604 75.1046 268.708 76.0001 267.604 76.0001L51.1153 76Z" fill="white"/>
<path d="M440.138 228.483H396.974C387.116 228.483 379.456 225.752 373.993 220.29C368.664 214.828 366 207.234 366 197.509V157.542C366 147.684 368.664 140.09 373.993 134.761C379.456 129.299 387.116 126.568 396.974 126.568H413.361C423.219 126.568 430.88 129.299 436.342 134.761C441.804 140.09 444.535 147.684 444.535 157.542V182.921C444.535 185.319 443.336 186.518 440.938 186.518H387.382C385.917 186.518 385.184 187.184 385.184 188.517V197.109C385.184 206.835 390.047 211.697 399.772 211.697H440.138C442.537 211.697 443.736 212.896 443.736 215.294V225.286C443.736 227.418 442.537 228.483 440.138 228.483ZM387.382 172.93H423.153C424.485 172.93 425.151 172.263 425.151 170.931V158.142C425.151 153.079 424.019 149.416 421.754 147.151C419.489 144.753 415.825 143.554 410.763 143.554H399.772C394.71 143.554 391.046 144.753 388.781 147.151C386.516 149.416 385.384 153.079 385.384 158.142V170.931C385.384 172.263 386.05 172.93 387.382 172.93Z" fill="white"/>
<path d="M483.535 228.483H470.946C468.681 228.483 467.549 227.351 467.549 225.086V91.3972C467.549 89.1324 468.681 88 470.946 88H483.535C485.8 88 486.932 89.1324 486.932 91.3972V225.086C486.932 227.351 485.8 228.483 483.535 228.483Z" fill="white"/>
<path d="M534.772 211.498H559.552C569.144 211.498 573.94 206.568 573.94 196.71V157.542C573.94 147.684 569.144 142.755 559.552 142.755H548.961C538.036 142.755 532.574 148.35 532.574 159.541V209.299C532.574 210.765 533.307 211.498 534.772 211.498ZM513.19 225.086V91.3972C513.19 89.1324 514.323 88 516.588 88H529.177C531.442 88 532.574 89.1324 532.574 91.3972V136.56H533.374C536.704 129.366 543.432 125.769 553.557 125.769H562.35C572.208 125.769 579.868 128.5 585.331 133.962C590.793 139.291 593.524 146.818 593.524 156.543V197.509C593.524 207.234 590.793 214.828 585.331 220.29C579.868 225.752 572.208 228.483 562.35 228.483H516.588C514.323 228.483 513.19 227.351 513.19 225.086Z" fill="white"/>
<path d="M654.389 228.483H645.396C635.804 228.483 628.41 225.819 623.215 220.49C618.152 215.028 615.621 207.368 615.621 197.509V129.965C615.621 127.7 616.753 126.568 619.018 126.568H631.608C633.873 126.568 635.005 127.7 635.005 129.965V196.71C635.005 206.568 639.801 211.498 649.393 211.498H658.985C669.909 211.498 675.371 205.836 675.371 194.512V129.965C675.371 127.7 676.504 126.568 678.769 126.568H691.358C693.756 126.568 694.955 127.7 694.955 129.965V225.086C694.955 227.351 693.756 228.483 691.358 228.483H678.769C676.504 228.483 675.371 227.351 675.371 225.086V217.892H674.572C671.375 224.953 664.647 228.483 654.389 228.483Z" fill="white"/>
<path d="M756.225 228.483H719.455C717.19 228.483 716.058 227.351 716.058 225.086V215.294C716.058 213.163 717.19 212.097 719.455 212.097H753.027C761.687 212.097 766.017 209.1 766.017 203.105V200.706C766.017 195.378 762.886 191.314 756.624 188.517L734.842 178.125C728.048 174.928 723.119 171.397 720.055 167.534C716.991 163.671 715.459 158.608 715.459 152.347C715.459 135.161 724.984 126.568 744.035 126.568H777.207C779.339 126.568 780.405 127.7 780.405 129.965V139.757C780.405 142.022 779.339 143.154 777.207 143.154H748.032C744.035 143.154 740.971 143.887 738.839 145.352C736.708 146.685 735.642 148.483 735.642 150.748V152.946C735.642 157.209 739.039 160.939 745.833 164.137L767.815 175.328C774.743 178.392 779.472 182.055 782.003 186.318C784.668 190.448 786 195.844 786 202.505C786 219.824 776.075 228.483 756.225 228.483Z" fill="white"/>
</svg>
